<svg width="80" height="80" viewBox="0 0 80 80" fill="none" xmlns="http://www.w3.org/2000/svg">
<g clip-path="url(#clip0_19_2314)">
<path d="M46.0667 72.3334C46.6334 72.5001 46.5334 73.3334 45.9334 73.3334H20C16.4638 73.3334 13.0724 71.9286 10.5719 69.4282C8.07145 66.9277 6.66669 63.5363 6.66669 60.0001V20.0001C6.66669 16.4639 8.07145 13.0725 10.5719 10.572C13.0724 8.07151 16.4638 6.66675 20 6.66675H45C45.9334 6.66675 46.6667 7.40008 46.6667 8.33341V16.6667C46.6667 21.087 48.4226 25.3263 51.5482 28.4519C54.6738 31.5775 58.9131 33.3334 63.3334 33.3334H71.6667C72.6 33.3334 73.3334 34.0667 73.3334 35.0001V42.6667C73.3234 42.9249 73.2387 43.1746 73.0895 43.3855C72.9404 43.5964 72.7331 43.7594 72.493 43.8547C72.253 43.9501 71.9903 43.9736 71.7371 43.9225C71.4839 43.8714 71.251 43.7478 71.0667 43.5667L70.4 42.9001C68.525 41.0274 65.9834 39.9755 63.3334 39.9755C60.6833 39.9755 58.1417 41.0274 56.2667 42.9001L42.9334 56.2334C42.0011 57.1625 41.2614 58.2664 40.7567 59.4819C40.2519 60.6974 39.9921 62.0006 39.9921 63.3167C39.9921 64.6329 40.2519 65.9361 40.7567 67.1516C41.2614 68.3671 42.0011 69.471 42.9334 70.4001C43.9334 71.4001 44.9334 71.9334 46.0667 72.3334Z" fill="#ABABAB"/>
<path d="M72.1999 26.6666C72.2999 26.6666 72.3666 26.5666 72.3333 26.4666C71.847 25.4533 71.1934 24.5292 70.4 23.7332L56.2666 9.59991C55.4706 8.80644 54.5466 8.15284 53.5333 7.66658C53.5117 7.65377 53.4869 7.64733 53.4618 7.648C53.4367 7.64866 53.4122 7.65641 53.3913 7.67034C53.3704 7.68428 53.3539 7.70383 53.3436 7.72676C53.3334 7.74968 53.3298 7.77504 53.3333 7.79991V16.6666C53.3333 19.3187 54.3868 21.8623 56.2622 23.7376C58.1376 25.613 60.6811 26.6666 63.3333 26.6666H72.1999ZM60.9999 47.6666C61.623 47.0558 62.4608 46.7137 63.3333 46.7137C64.2058 46.7137 65.0435 47.0558 65.6666 47.6666L79 60.9999C79.4814 61.6418 79.7151 62.4358 79.6582 63.2362C79.6013 64.0366 79.2577 64.7896 78.6903 65.3569C78.1229 65.9243 77.3699 66.268 76.5696 66.3249C75.7692 66.3817 74.9752 66.148 74.3333 65.6666L66.6666 58.0666V76.6666C66.6666 77.5506 66.3154 78.3985 65.6903 79.0236C65.0652 79.6487 64.2173 79.9999 63.3333 79.9999C62.4492 79.9999 61.6014 79.6487 60.9763 79.0236C60.3511 78.3985 59.9999 77.5506 59.9999 76.6666V58.0332L52.3333 65.6999C51.6918 66.2418 50.8694 66.5216 50.0305 66.4834C49.1917 66.4451 48.3981 66.0917 47.8086 65.4937C47.219 64.8958 46.8769 64.0973 46.8506 63.258C46.8243 62.4187 47.1157 61.6003 47.6666 60.9666L60.9999 47.6332V47.6666Z" fill="#ABABAB"/>
</g>
<defs>
<clipPath id="clip0_19_2314">
<rect width="80" height="80" fill="white"/>
</clipPath>
</defs>
</svg>
