<svg width="100" height="100" viewBox="0 0 100 100" fill="none" xmlns="http://www.w3.org/2000/svg">
<path d="M88.7498 5.21033C89.5521 4.60862 90.5453 4.31697 91.5457 4.38806C92.546 4.45926 93.487 4.88892 94.1961 5.59803C94.9052 6.30716 95.3348 7.24812 95.406 8.24842C95.4771 9.24888 95.1845 10.2419 94.5828 11.0443L11.2498 94.3773C10.8916 94.8548 10.435 95.2498 9.9109 95.5355C9.38676 95.8213 8.80714 95.9913 8.21168 96.0336C7.61629 96.0759 7.01895 95.9894 6.45973 95.7806C5.90048 95.5719 5.39258 95.2457 4.97047 94.8236C4.54836 94.4015 4.22121 93.8937 4.01246 93.3344C3.80379 92.7752 3.71823 92.1776 3.76051 91.5824C3.80282 90.9869 3.97282 90.4074 4.25855 89.8832C4.54429 89.3591 4.9392 88.9024 5.41676 88.5443L88.7498 5.21033ZM86.0838 24.4262C86.7871 26.0089 87.1648 27.7349 87.1648 29.5004V44.4418L90.1121 47.389C91.7377 49.0155 91.738 51.6524 90.1121 53.2787L87.1648 56.226V71.1674C87.1645 74.4817 85.8483 77.6616 83.5046 80.0053C81.1609 82.3488 77.9812 83.6653 74.6668 83.6654C72.3669 83.6653 70.5023 81.8001 70.5017 79.5004C70.5019 77.2003 72.3667 75.3354 74.6668 75.3353C75.7719 75.3353 76.8324 74.896 77.614 74.1146C78.3955 73.3332 78.8344 72.2725 78.8347 71.1674V54.5004C78.8348 53.3961 79.2747 52.337 80.0554 51.556L81.2761 50.3334L80.0554 49.1127C79.2746 48.3319 78.835 47.2716 78.8347 46.1674V31.6937L86.0838 24.4262ZM70.9998 44.0004C74.3133 44.0005 76.9998 46.6868 76.9998 50.0004C76.9994 53.3137 74.3131 56.0002 70.9998 56.0004H55.9998V72.0004C55.9994 75.3137 53.3131 78.0002 49.9998 78.0004C46.6864 78.0002 44.0001 75.3137 43.9998 72.0004V66.6166L66.5593 44.0004H70.9998ZM24.6668 17.0023C26.9669 17.0025 28.8318 18.8672 28.8318 21.1674C28.8312 23.467 26.9665 25.3322 24.6668 25.3324C23.5614 25.3324 22.5012 25.7715 21.7195 26.5531C20.9382 27.3347 20.4989 28.3952 20.4988 29.5004V46.1674C20.4985 47.2716 20.0589 48.3319 19.2781 49.1127L18.0564 50.3334L19.2781 51.556C20.0587 52.337 20.4987 53.3962 20.4988 54.5004V68.5013L13.1052 75.9125C12.4932 74.4209 12.1689 72.8108 12.1687 71.1674V56.226L9.22145 53.2787C7.59546 51.6523 7.59568 49.0155 9.22145 47.389L12.1687 44.4418V29.5004C12.1688 26.1861 13.4856 23.0072 15.8289 20.6635C18.1727 18.3196 21.352 17.0024 24.6668 17.0023ZM49.9998 23.0004C53.3133 23.0005 55.9998 25.6868 55.9998 29.0004V32.9115L32.9685 56.0004H27.9998C24.6864 56.0002 22.0001 53.3137 21.9998 50.0004C21.9998 46.6868 24.6862 44.0005 27.9998 44.0004H43.9998V29.0004C43.9998 25.6867 46.6862 23.0005 49.9998 23.0004Z" fill="#3AA360"/>
</svg>
