<svg width="32" height="32" viewBox="0 0 32 32" fill="none" xmlns="http://www.w3.org/2000/svg">
<path fill-rule="evenodd" clip-rule="evenodd" d="M26.3135 3C27.1966 3.0001 28.0435 3.31184 28.668 3.86719C29.2926 4.42263 29.6436 5.17639 29.6436 5.96191V23.5791L25.3232 20.9775V20.9795C24.9916 20.777 24.5897 20.6227 24.1416 20.5938C23.6762 20.5637 23.1768 20.6714 22.7373 20.9678C22.3528 21.2271 22.0857 21.5833 21.9268 21.9648L21.8643 22.1299L21.8164 22.293C21.7217 22.6653 21.7228 23.0365 21.7783 23.3711L21.7773 23.3701L22.7812 29.6562H6.33008C5.44685 29.6562 4.60015 29.3435 3.97559 28.7881C3.35107 28.2327 3.00008 27.4798 3 26.6943V5.96191C3 5.17639 3.351 4.42263 3.97559 3.86719C4.60014 3.31188 5.4469 3.00001 6.33008 3H26.3135ZM12.9336 24.833C12.6466 24.833 12.3455 24.9086 12.1162 25.1377L12.1094 25.1455L12.1025 25.1523C11.9294 25.3399 11.8232 25.5761 11.8232 25.8457C11.8232 26.1257 11.9414 26.3644 12.1152 26.5518L12.1221 26.5586L12.1279 26.5654C12.3587 26.7962 12.6586 26.8828 12.958 26.8828H19.9893C20.2866 26.8828 20.5921 26.7965 20.8193 26.5518C20.9933 26.3644 21.1123 26.1258 21.1123 25.8457C21.1123 25.5629 20.991 25.3221 20.8066 25.1377L20.8057 25.1387C20.5846 24.9092 20.2909 24.833 20.0137 24.833H12.9336ZM10.8359 8.83301C10.5498 8.83301 10.2584 8.93115 10.0566 9.19043C9.87343 9.42599 9.82324 9.72145 9.82324 9.99219V13.5811C9.82324 13.8918 9.91625 14.2022 10.165 14.4346L10.1709 14.4404L10.1768 14.4453C10.3807 14.6238 10.633 14.7402 10.9219 14.7402C11.1732 14.7401 11.3945 14.6446 11.5732 14.4863L11.5742 14.4873L11.6689 14.3926C11.8429 14.1956 11.9106 13.9481 11.9209 13.7119L12.0459 10.8828H15.3164V22.0781H12.8623C12.5752 22.0781 12.2742 22.1535 12.0449 22.3828L12.0381 22.3896L12.0312 22.3975C11.8797 22.5617 11.7794 22.7627 11.7568 22.9912L11.752 23.0908L11.7578 23.1934C11.7828 23.4293 11.8917 23.6329 12.0439 23.7969L12.0508 23.8037L12.0566 23.8105C12.2874 24.0413 12.5873 24.1279 12.8867 24.1279H19.918C20.2152 24.1279 20.5208 24.0415 20.748 23.7969C20.922 23.6096 21.0409 23.3708 21.041 23.0908C21.041 22.808 20.9198 22.5672 20.7354 22.3828C20.5144 22.1536 20.2195 22.0781 19.9424 22.0781H17.4883V10.8828H20.8027L20.9072 13.709L20.9092 13.7383C20.9347 14.0064 21.0396 14.2699 21.2676 14.4629C21.4574 14.6235 21.6879 14.7158 21.9443 14.7158C22.2247 14.7158 22.4681 14.603 22.6621 14.4229C22.9156 14.1956 23.0059 13.8848 23.0059 13.5811V9.99219C23.0059 9.72534 22.9586 9.43438 22.7852 9.2002C22.5909 8.93806 22.3046 8.83301 22.0176 8.83301H10.8359Z" fill="#ABABAB"/>
<path d="M24.1504 29.6699C24.2887 30.5471 25.2203 31.2337 25.7674 30.8647L30.6425 27.5763C31.1896 27.2073 30.8985 26.0887 30.1405 25.6295L24.1658 22.0298C24.0177 21.9379 23.8622 21.8846 23.7139 21.8751C23.5656 21.8655 23.4293 21.8999 23.3179 21.9751C23.2064 22.0503 23.1234 22.1637 23.0768 22.3048C23.0301 22.4459 23.0212 22.61 23.0509 22.7818L24.1504 29.6699Z" fill="#ABABAB"/>
</svg>
