<svg width="32" height="32" viewBox="0 0 32 32" fill="none" xmlns="http://www.w3.org/2000/svg">
<path fill-rule="evenodd" clip-rule="evenodd" d="M26.3132 3C27.1963 3.0001 28.0433 3.31192 28.6677 3.86719C29.2923 4.42263 29.6433 5.17639 29.6433 5.96191V23.5791L25.323 20.9775V20.9795C24.9914 20.7771 24.5894 20.6227 24.1414 20.5938C23.676 20.5638 23.1765 20.6714 22.7371 20.9678C22.3527 21.2271 22.0854 21.5834 21.9265 21.9648L21.864 22.1299L21.8162 22.293C21.7214 22.6653 21.7226 23.0365 21.7781 23.3711L21.7771 23.3701L22.781 29.6562H6.32983C5.4467 29.6562 4.59985 29.3434 3.97534 28.7881C3.35091 28.2327 2.99983 27.4797 2.99976 26.6943V5.96191C2.99976 5.17645 3.35084 4.42262 3.97534 3.86719C4.59984 3.31194 5.44675 3.00007 6.32983 3H26.3132ZM12.9265 22.7373C12.6392 22.7373 12.3631 22.8477 12.1599 23.0439C11.957 23.2401 11.8426 23.5059 11.8425 23.7832C11.8425 24.0607 11.9568 24.3272 12.1599 24.5234C12.3631 24.7197 12.6392 24.8301 12.9265 24.8301H19.5955C19.8827 24.83 20.158 24.7196 20.3611 24.5234C20.5642 24.3272 20.6785 24.0607 20.6785 23.7832C20.6784 23.5059 20.5641 23.2401 20.3611 23.0439C20.158 22.8478 19.8827 22.7374 19.5955 22.7373H12.9265ZM16.2605 7.83008C15.9771 7.83012 15.7051 7.93738 15.5027 8.12891L10.0857 13.3613C9.90681 13.5602 9.81153 13.8168 9.82007 14.0801C9.82862 14.3435 9.94 14.5945 10.1316 14.7822C10.3232 14.9699 10.5816 15.0808 10.8542 15.0928C11.1268 15.1047 11.3939 15.0167 11.6023 14.8467L15.1775 11.3828V19.8594C15.1775 20.1369 15.2917 20.4034 15.4949 20.5996C15.698 20.7956 15.9733 20.9062 16.2605 20.9062C16.5478 20.9062 16.8239 20.7958 17.0271 20.5996C17.2302 20.4034 17.3445 20.1369 17.3445 19.8594V11.3936L20.9187 14.8467C21.0167 14.9555 21.1374 15.0436 21.2722 15.1055C21.407 15.1673 21.5537 15.2015 21.7029 15.2061C21.852 15.2105 22.0009 15.1854 22.1394 15.1318C22.2779 15.0783 22.4038 14.9971 22.5085 14.8945C22.6131 14.792 22.6944 14.6695 22.7478 14.5352C22.8013 14.4005 22.8259 14.2563 22.8191 14.1123C22.8123 13.9685 22.7746 13.8275 22.7087 13.6982C22.6428 13.5689 22.5493 13.4544 22.4353 13.3613L17.0193 8.12891C16.8168 7.93718 16.5441 7.83008 16.2605 7.83008Z" fill="#ABABAB"/>
<path d="M24.1504 29.6699C24.2887 30.5471 25.2203 31.2337 25.7674 30.8647L30.6425 27.5763C31.1896 27.2073 30.8985 26.0887 30.1405 25.6295L24.1658 22.0298C24.0177 21.9379 23.8622 21.8846 23.7139 21.8751C23.5656 21.8655 23.4293 21.8999 23.3179 21.9751C23.2064 22.0503 23.1235 22.1637 23.0768 22.3048C23.0301 22.4459 23.0212 22.61 23.0509 22.7818L24.1504 29.6699Z" fill="#ABABAB"/>
</svg>
